<svg class="knoxLogo" viewBox="-849 851 300 300">
<path d="M-579.1,963.2c1.6-2.5,3-4.8,4.4-7.1c0.3-0.4,0.5-0.9,0.8-1.3c0.2-0.3,0.5-0.4,0.8-0.6c0.2,0.3,0.5,0.6,0.6,0.9
    c0.5,2.4,0.3,4.6-0.9,6.8c-1,1.9-0.7,4,0.3,5.9c2.3,4.3,3.5,8.8,3.4,13.7c0,3.2-0.1,6.4,0,9.6c0.1,5,0.6,10,2,14.8
    c1.1,3.5,2.2,7,4.4,10.1c1.5,2.1,3.2,4,4.7,6.1c1.1,1.5,2.3,3,2.9,4.7c0.5,1.2,0.4,2.7,0.2,4.1c-0.5,4.4-1.9,8.5-3.3,12.6
    c-1.7,5-3.5,9.9-5.5,14.7c-1.4,3.3-3,6.6-4.8,9.7c-3,5.2-6.1,10.3-9.4,15.3c-2,3-4.4,5.8-6.7,8.6c-0.4,0.5-1.1,0.9-1.7,1
    c-3.3,0.6-6.5,1-9.8,1.7c-4.7,1-9.3,2.2-14,3.1c-4.1,0.7-7.9-0.2-10.4-3.9c-1.4-2.2-3.4-2.8-5.6-3.3c-3.4-0.7-6.7-1.3-10.1-1.9
    c-2.9-0.6-5.8-1.3-8.7-1.7c-3-0.4-6.1-0.8-9.2-0.8c-3,0-5.9,0.7-8.9,1c-3,0.3-6,0.8-9.1,0.9c-1.8,0.1-3.6-0.2-5.4-0.7
    c-2.3-0.6-4.1,0.3-5.8,1.5c-1.7,1.1-3.3,2.5-5.2,3.4c-1.6,0.8-3.5,1.2-5.3,1.4c-2.6,0.3-5.2,0-7.6-1.1c-3.7-1.7-5-3.9-4.5-8.2
    c0.2-1.4,0.4-2.8,0.3-4.2c-0.2-2.1-1.7-3.3-3.7-3.8c-2.5-0.6-5-0.8-7.5-1.2c-1.1-0.2-2.1-0.3-3.3-0.5c0.5-1.7,0.9-3.3,1.5-4.7
    c0.9-2.2,0.8-4.5,0.1-6.7c-0.1-0.3-0.5-0.6-0.9-0.7c-2.1-0.4-4.1-0.3-5.6,1.6c-1.7,2-3.9,3.2-6.4,2.3c-2.1-0.7-4-1.9-5.8-3.1
    c-2.8-1.8-3.6-4.6-3.8-7.7c-0.2-3.6,0.5-7.1,2.5-10.1s4.9-4.3,8.5-4.7c3.4-0.4,6.5,1.2,9.8,0.8c1.6-0.2,3.2-0.5,4.7-0.8
    c4.9-0.7,8.5,1.2,11.6,4.9c1.4,1.8,3.2,3.3,5,4.8c0.5-2,0.3-3.9-0.2-5.8c-1.1-4.3-0.8-8.4,2.7-11.6c1.3-1.2,2.9-2.2,4.2-3.4
    c2.1-1.9,3.6-4.1,4.6-6.7c1.2-3.1,2.2-6.3,3.6-9.2c2-4.1,5-7.7,7.8-11.3c2.4-3.2,5.8-4.1,9.3-5.3c1.7-0.6,3.3-1.6,5-2.4
    c0.4-0.2,0.6-0.8,1-1.3c-1.4-0.6-2.7-1.1-3.9-1.7c-1.3-0.6-2.6-1.2-3.7-2.1c-1.3-1-2.4-2.1-3.6-3.3c-0.7-0.7-0.5-1.4,0.4-1.7
    c3.7-1.3,7.3-2.6,11-4c0.8-0.3,1.3-0.2,1.8,0.5c1.3,1.9,2.7,3.7,4.1,5.5c2,2.3,4.5,2.3,7.5,1.5c-1.2-1.1-2.2-2.1-3.3-3
    c-4.1-3.4-7.9-7.1-11.1-11.4c-3.2-4.3-6.7-8.3-11.7-10.6c-1.6-0.7-3.3-1.2-4.9-1.6c-2.7-0.8-5-2.2-7.2-3.9c-2.1-1.6-4.5-2.6-7-3.3
    c-1.4-0.3-2.2,0.1-2.3,1.5c-0.2,1.7,0,3.4,0,5.2c0.1,3.8,0.3,7.6,0.3,11.4c0,3.3-0.8,6.5-2,9.6c-0.4,1.1-0.9,1.2-1.7,0.3
    c-1.1-1.3-2.2-2.6-3.1-4c-0.7-1.1-1.1-2.5-1.4-3.8c-0.6-2.5-2.2-3.8-4.5-4.6c-1.4-0.5-2.9-0.9-4.2-1.5c-4.3-2-5.3-5.7-3.7-10
    c0.9-2.3,2.3-4.2,4-6c1.9-2,3.9-4.1,6-6c2.9-2.6,5.2-5.7,7.3-8.9c0.6-1,1.2-1,2-0.4c0.8,0.6,1.8,1,2.6,1.6c1.7,1.2,2.2,3,1.8,5
    c-0.5,2.3-1.1,4.5-1.6,6.9c2.4,0.7,4.8,1.5,7.2,2.2c0.5,0.2,1,0.4,1.5,0.6c1.9,0.9,3.1,0.8,4.1-1c1-1.9,1.6-4.1,2.1-6.2
    c0.3-1.4-0.6-2.5-1.8-3.3c-1.6-1.1-3.3-2-4.9-3.2c-0.8-0.6-1.4-1.5-1.9-2.3c-1.4-2.8-3.6-4.7-6.3-6c-2.3-1.1-4.6-2-6.9-2.9
    c-2.4-1-4.6-0.1-7.1,0.6c1.6,2,3.1,3.8,4.5,5.6c0.1,0.1,0.2,0.2,0.3,0.3c1.2,1.5,1,2.1-0.9,2.5c-2.2,0.4-3.2-1-4.2-2.4
    c-1.2-1.6-2.4-3.3-3.7-5.2c-0.3,0.7-0.4,1.2-0.6,1.8c-0.6,1.8-1.3,3.4-3.1,4.3c-0.8,0.4-1.3,0.2-1.8-0.3c-0.9-1.1-1.4-2.1-1.1-3.7
    c0.4-2.2-0.4-4.3-1.8-6c-1.5-1.7-3.1-3.4-4.9-4.8c-0.8-0.7-2-1-3.1-1.1c-1.5-0.2-2.9,0-4.6,0c0.5,0.8,1,1.7,1.5,2.5
    c1.9,3.2,3.9,6.4,5.9,9.5c0.6,0.9,0.7,1.7-0.2,2.3c-0.8,0.6-1.5,1.2-2.6,0.1c-3.6-3.4-7.4-6.8-11.1-10.2c-2.3-2.2-4.6-4.4-6.9-6.6
    c-1.4-1.3-1.9-3-2.2-4.8c-0.3-1.7-0.3-3.4-0.5-5.1c-0.3-2.9-3.1-4.4-6.2-3.8c-1.9,0.4-3.9,0.6-5.9,0.7c-2.5,0-4.6,1.4-5.4,3.8
    c-0.3,1-1.8,1.7-3.2,1.4c-1.5-0.3-3-0.5-4.5,0.1c-2,0.8-2.8,2.5-3.6,4.2c-0.4,0.9-0.7,1.8-1.1,2.7c-1,2.2-2.8,3.1-5.7,2.8
    c0.9,0.5,1.8,1,2.7,1.4c3.1,1.4,6.2,2.7,9.3,4.2c3.2,1.5,5.7,6.4,5.4,10.4c-0.3,4.1-1.3,7.9-2.2,11.8c-0.5,2.4-1.4,4.8-1.8,7.2
    c-0.5,2.9-0.5,5.8-0.9,8.7c-0.3,2.6-0.8,5.2-1.4,7.7c-1.1,4.4-3.8,8.1-5.7,12.2c-2,4.4-3.8,9-4.2,13.9c-0.3,3.4-0.5,6.9-0.3,10.3
    c0.2,3.1,1,6.3,1.9,9.3c1.2,4.4,2.4,8.7,3.9,13c1,2.9,1.8,5.9,3.9,8.2c0.3,0.4,0.7,0.7,1.3,0.9c-0.3-1.4-0.6-2.8-0.9-4.1
    c-0.8-3-1.7-6-2.4-9.1c-0.1-0.4,0.1-1.3,0.4-1.4c0.6-0.3,1.4-0.4,2-0.2c1.4,0.5,1.6,2,2.1,3.2c1.7,4.3,3.4,8.6,5,13
    c1.5,4.3,2.9,8.6,4.4,12.9c0.9,2.5,2.4,4.6,4.5,6.2c2.2,1.8,4.3,3.7,6.7,5.3c4.9,3.3,10.2,5.9,15.6,8.3c4.4,2,8.7,4,13,6
    c2.9,1.3,5.2,3.4,6.5,6.3c0.8,1.9,1.8,3.6,3.2,5.1c2.3,2.4,5.1,3.5,8.3,3.9c2.1,0.2,4.2,0.2,6.2,0.3c1.4,0.1,2.7,0.1,4.1,0.3
    c1,0.1,1.7,0.6,1.6,1.8c-0.2,2.3-0.1,4.6-0.4,6.9c-0.4,3.1-2.3,5.2-5.2,6.2c-3,1-4,3.2-4.2,6c-0.1,1.9-0.5,3.9,1.1,5.4
    c1.2,1.1,2.5,2.2,3.8,3.2c3.8,3.1,7.7,6.2,11.5,9.3c2.4,1.9,4.8,3.8,7.2,5.7c0.2,0.2,0.4,0.3,0.6,0.5c0.2,0.3,0.4,0.7,0.6,1.1
    c-0.3,0.2-0.7,0.5-1,0.5c-3.6,0.4-7.2,1-10.8,1.2c-5.4,0.3-10.9,0.4-16.3,0.3c-3.1,0-6.2-0.5-9.3-1c-3.7-0.5-7.5-1.1-11.1-1.9
    c-4.8-1-9.5-2.1-14.1-3.6c-6.1-2.1-12.2-4.6-18.1-7.1c-3-1.3-5.8-2.8-8.6-4.5c-5.2-3.1-10.4-6.2-15.4-9.7c-3.5-2.4-6.8-5.3-10-8.1
    c-2.7-2.3-5.3-4.8-7.8-7.3c-4.7-4.7-8.9-9.8-12.8-15.2c-4.3-5.9-8.1-12.1-11.5-18.5c-2-3.7-3.7-7.6-5.3-11.6
    c-2.2-5.8-4.3-11.7-6.1-17.6c-1.2-4.1-1.9-8.3-2.8-12.5c-1.3-5.7-2-11.5-2.2-17.3c-0.2-5.4-0.5-10.8-0.2-16.2
    c0.4-6.4,1.3-12.7,2.4-19c0.9-5,2.1-10,3.6-14.8c1.6-5.1,3.4-10.2,5.6-15.1c2.5-5.7,5.4-11.3,8.4-16.8c2.2-3.9,4.9-7.5,7.5-11.2
    c5-7,11-13.7,17.6-19.9c3.7-3.5,7.6-6.8,11.7-9.8c4.8-3.5,10-6.6,15-9.8c1.6-1,3.3-1.7,5-2.5c0.8-0.4,1.1-0.2,1.4,0.7
    c0.6,1.8,0.7,3.5-0.3,5c-0.6,0.9-1.4,1.8-2.3,2.5c-2,1.7-4,3.2-6,5c-1.5,1.3-1.5,2.3-0.3,3.9c0.7,0.8,1.5,1.5,2.2,2.3
    c1.1,1.1,2.2,2.2,3.1,3.4c0.3,0.4,0.3,1.2,0.2,1.7c-0.2,1-0.7,2-1,3c0.1,0.1,0.2,0.2,0.2,0.3c1-0.4,2.2-0.5,3-1.1
    c3.3-2.7,6.4-5.5,9.5-8.5c2-1.9,3.3-4.3,4-7c0.1-0.5,0.6-1.1,1-1.4c1.7-1.2,3.7-1.5,5.7-1.9c1.3-0.2,2.6-0.5,3.2-1.9
    c0.1-0.2,0.2-0.5,0.3-0.7c0.2-0.8,0.1-2,0.6-2.3c1.3-0.9,2.7-1.4,4.2-1.9c1.2-0.4,2.6-0.4,3.8-1c1-0.5,2.1-1.4,2.4-2.4
    c0.7-2.4,2.6-2.8,4.4-3.3c3.1-0.9,6.2-1.7,9.4-2.3c1.7-0.4,3.5-0.6,5.3-0.4c1,0.1,2.1,0.7,2.9,1.5c1.8,1.8,3.7,3.2,6.2,3.4
    c1.9,0.1,3.9-0.1,5.8-0.2c2.8-0.3,5.6-0.7,8.3-0.9c3.3-0.3,6.6-0.3,9.9-0.6c1.4-0.1,2.9-0.2,4.3-0.5c0.7-0.1,1.4-0.5,1.9-0.9
    c2.8-2.3,4.7-1.8,7.1,0c4.1,3,8,6.1,12.1,9.1c2.2,1.7,4.2,3.5,5.8,5.8c0.7,1,1.5,1.3,2.6,0.7c0.5-0.3,1.1-0.5,1.6-0.7
    c2.3-0.9,4,0.1,4.3,2.5c0,0.3-0.3,0.9-0.6,1c-2.3,0.9-4.6,1.7-7,2.5c-1.3,0.5-2.7,0.9-4.2,1.4c3.2,3.1,6.2,5.9,10.1,7.8
    c3.5,1.7,7,3.7,9.8,6.6c1.1,1.1,2,2.3,2.8,3.6c1.9,3.2,4.8,4.5,8.3,4.9c0.5,0,1.1-0.1,1.5-0.4c1.6-1.1,3.2-2.4,4.9-3.7
    c-0.4-0.4-0.7-0.7-1-0.9c-3.5-2.8-7-5.5-10.5-8.3c-0.9-0.7-1.3-1.5-0.9-2.8c0.3-1.1,0.2-2.3,0.4-3.4c0.1-0.7,0.4-1.3,0.6-2.2
    c3.4,1.9,6.7,3.5,9.8,5.4c2,1.2,2.6,3.6,3.3,5.7c1,3.1,2.1,6.2,3.2,9.3c0.5,1.3,1.3,2.5,1.7,3.8c1.1,3.8,3.8,6.5,6.2,9.4
    c0.3,0.4,0.8,0.9,0.9,1.4c0.1,0.5-0.2,1.2-0.5,1.5c-0.3,0.3-1.1,0.3-1.5,0.1c-5-2.3-9.9-4.7-14.8-7.1c-0.6-0.3-1.1-0.6-1.7-0.9
    c-0.3-0.1-0.6,0-0.9,0.1c0.1,0.3,0,0.6,0.2,0.8c2.3,3.1,3.2,6.8,4.7,10.2c1.2,2.9,3.2,5.1,6.4,6.6c-0.7-1.6-1.3-2.9-1.9-4.2
    c-0.1-0.3-0.3-0.5-0.4-0.8c-0.1-0.4-0.1-0.8-0.2-1.2c0.4,0,0.8-0.1,1.2,0.1c2.5,0.8,5,1.7,7.7,2.6c0.3-1.3,0.6-2.4,0.8-3.6
    c0.1-0.3,0.1-0.7,0.3-1c0.4-0.4,0.9-0.9,1.5-1c0.3,0,0.9,0.7,1,1.2c0.3,2.2,0.6,4.4,0.7,6.5c0.1,3.2,1.5,4.8,4.7,5.3
    c0.9,0.1,1.8,0.3,2.7,0.5c3,0.8,3.1,2.6,2.4,5c-0.3,1.2-0.9,2.3-1.3,3.4c-0.8,2.6,0.1,4.9,1.5,7
    C-583.3,957.9-581.2,960.5-579.1,963.2z M-648.2,949c-1.1-0.7-2-1.3-2.8-1.8c-1.4-0.9-2.4-2-2.3-3.8c0.1-0.8,0-1.7,0-2.6
    c0-2.8-0.1-5.6,0.1-8.4c0.3-3.4,1.6-6.5,3-9.7c0.8-1.9,0.4-4.5-1.2-5.7c-3.2-2.3-6.5-4.4-9.9-6.5c-3-1.8-6-3.5-9-5.3
    c-2.6-1.5-5.2-3-8.3-3c-3.6,0-6.9,1.1-9.7,3.5c-1.3,1.1-2.7,2-4.5,1.5c-1.3-0.4-2.5-0.7-3.8-1c-1.8-0.5-3.2,0-3.8,1.4
    c-1.2,2.9-2.1,6-2.2,9.2c-0.1,1.4,0.5,2.3,1.5,3c0.9,0.6,1.9,1,2.8,1.5c0.6,0.3,1.2,0.1,1.4-0.6c0.6-1.5,1.1-3,1.9-4.4
    c0.9-1.6,0.8-2.2,2.6-0.7c0.4,0.4,0.9,0.7,1.3,1c6.4,4.8,12.3,10,17.7,16c1.5,1.7,2.9,3.7,3.8,5.8c1.8,4.1,3.8,7.8,7.2,10.8
    c1.9,1.7,3.9,3.1,6.5,2.6c1.7-0.3,3.4-1,5.1-1.6C-650.1,950-649.3,949.5-648.2,949z M-639.3,931c1.7-2.7,3.4-5.3,5-8
    c0.1-0.2,0.1-0.8-0.1-1c-0.6-0.7-1.2-1.4-1.9-1.9c-0.4-0.3-1.1-0.4-1.5-0.2c-2.6,1.6-5.2,3.3-7.9,5.1
    C-643.5,927.1-641.5,929-639.3,931z M-706.5,1061.3c0.2,0.1,0.3,0.2,0.4,0.1c2-0.4,3.9,0,5.6,0.9c2.3,1.2,4.6,2.5,6.9,3.8
    c2.6,1.5,5.3,2.3,8.3,1.4c0.4-0.1,0.7-0.9,0.9-1.4c0.1-0.2-0.2-0.8-0.4-0.9c-0.9-0.3-1.8-0.5-2.7-0.7c-3.5-0.8-7-1.6-10.5-2.4
    c-2.5-0.6-4.9-1.2-7.4-1.8C-705.9,1060.3-706.6,1060.2-706.5,1061.3z M-681.9,1069.5c1,0.1,1.7,0.2,2.3,0.3c2.8,0.5,5.6,0.9,8.4,1.4
    c0.2,0,0.6-0.1,0.8-0.2c0.1-0.1,0.1-0.5,0-0.7c-1.5-1.7-3.2-3.4-5.5-3.5C-678.1,1066.6-679.8,1068-681.9,1069.5z M-576.4,924.8
    c-0.8-1.2-1.5-2.1-2-3.1c-0.3-0.6-0.3-1.3-0.4-1.9c0.9-0.1,1.8-0.4,2.6-0.2c0.6,0.1,1.1,0.8,1.4,1.3c2.1,3.7,4.2,7.5,6.3,11.2
    c0.4,0.7,0.2,1.3-0.4,1.8c-2.6,2.6-3,5.8-2.6,9.3c0.3,2,0.4,4-0.3,6.1c-2.1-0.1-3.4-1.3-4.5-2.8c-2.6-3.6-3.6-7.9-4.6-12.1
    c-0.4-1.9-0.6-3.8-1-5.6c-0.2-0.9,0-1.5,0.9-1.8C-579.4,926.3-578,925.6-576.4,924.8z"/>
</svg>